<svg aria-hidden="true" style="position: absolute; width: 0; height: 0; overflow: hidden;" version="1.1" xmlns="http://www.w3.org/2000/svg" xmlns:xlink="http://www.w3.org/1999/xlink">
    <defs>
        <symbol id="chevron-right" viewBox="0 0 31 32">
            <path d="M12.425 22.691l7.305-7.305-7.305-7.305-1.81 1.81 5.495 5.495-5.495 5.495 1.81 1.81z"></path>
        </symbol>
        <symbol id="chevrons-right" viewBox="0 0 35 32">
            <path d="M14.123 4.965l11.533 11.44-11.533 11.44 3.755 3.787 15.352-15.227-15.352-15.227-3.755 3.787z"></path>
            <path d="M4.544 1.178l-3.755 3.787 11.533 11.44-11.533 11.44 3.755 3.787 15.352-15.227-15.352-15.227z"></path>
        </symbol>
        <symbol id="email" viewBox="0 0 41 32">
            <path d="M35.879 0.868h-31.030c-2.139 0-3.879 1.74-3.879 3.879v23.273c0 2.139 1.74 3.879 3.879 3.879h31.030c2.139 0 3.879-1.74 3.879-3.879v-23.273c0-2.139-1.74-3.879-3.879-3.879zM35.879 4.747v0.991l-15.515 12.069-15.515-12.067v-0.993h31.030zM4.848 28.019v-17.369l14.324 11.142c0.34 0.267 0.759 0.412 1.191 0.412s0.851-0.145 1.191-0.412l14.324-11.142 0.004 17.369h-31.034z"></path>
        </symbol>
        <symbol id="facebook" viewBox="0 0 31 32">
            <path d="M28.444 16.164c0-7.184-5.789-13.008-12.929-13.008s-12.929 5.824-12.929 13.008c0 6.493 4.728 11.874 10.909 12.85v-9.090h-3.283v-3.76h3.283v-2.866c0-3.26 1.93-5.061 4.884-5.061 1.415 0 2.894 0.254 2.894 0.254v3.201h-1.63c-1.606 0-2.107 1.003-2.107 2.031v2.44h3.586l-0.573 3.76h-3.013v9.090c6.181-0.976 10.909-6.357 10.909-12.85z"></path>
        </symbol>
        <symbol id="instagram" viewBox="0 0 31 32">
            <path d="M15.514 6.23c3.109 0 3.477 0.014 4.699 0.068 1.137 0.050 1.75 0.241 2.159 0.4 0.541 0.209 0.931 0.464 1.336 0.868 0.409 0.409 0.659 0.796 0.873 1.337 0.159 0.409 0.35 1.027 0.4 2.159 0.055 1.227 0.068 1.595 0.068 4.7s-0.014 3.477-0.068 4.7c-0.050 1.137-0.241 1.75-0.4 2.159-0.209 0.541-0.463 0.931-0.868 1.336-0.409 0.409-0.796 0.659-1.336 0.873-0.409 0.159-1.027 0.35-2.159 0.4-1.228 0.055-1.595 0.068-4.7 0.068s-3.477-0.014-4.7-0.068c-1.137-0.050-1.75-0.241-2.159-0.4-0.541-0.209-0.931-0.463-1.337-0.868-0.409-0.409-0.659-0.796-0.873-1.336-0.159-0.409-0.35-1.027-0.4-2.159-0.055-1.228-0.068-1.595-0.068-4.7s0.014-3.477 0.068-4.7c0.050-1.137 0.241-1.75 0.4-2.159 0.209-0.541 0.464-0.932 0.868-1.337 0.409-0.409 0.796-0.659 1.337-0.873 0.409-0.159 1.027-0.35 2.159-0.4 1.222-0.055 1.591-0.068 4.7-0.068h0.001zM15.514 4.135c-3.159 0-3.554 0.014-4.795 0.068-1.236 0.055-2.086 0.255-2.822 0.541-0.768 0.3-1.418 0.695-2.063 1.345-0.65 0.646-1.046 1.295-1.345 2.059-0.287 0.741-0.487 1.586-0.541 2.822-0.055 1.246-0.068 1.641-0.068 4.799s0.014 3.554 0.068 4.795c0.055 1.236 0.255 2.086 0.541 2.822 0.3 0.768 0.695 1.418 1.345 2.063 0.645 0.645 1.295 1.046 2.059 1.341 0.741 0.287 1.586 0.486 2.822 0.541 1.241 0.055 1.636 0.068 4.795 0.068s3.554-0.014 4.795-0.068c1.236-0.055 2.086-0.254 2.822-0.541 0.764-0.295 1.414-0.695 2.059-1.341s1.046-1.295 1.341-2.059c0.286-0.741 0.486-1.586 0.541-2.822 0.055-1.241 0.068-1.636 0.068-4.795s-0.014-3.554-0.068-4.795c-0.055-1.236-0.255-2.086-0.541-2.822-0.287-0.773-0.682-1.422-1.331-2.068-0.645-0.645-1.295-1.046-2.059-1.341-0.741-0.287-1.586-0.487-2.822-0.541-1.245-0.059-1.641-0.073-4.799-0.073l-0.001 0.001z"></path>
            <path d="M15.513 9.794c-3.299 0-5.977 2.677-5.977 5.977s2.677 5.977 5.977 5.977c3.3 0 5.977-2.677 5.977-5.977s-2.677-5.977-5.977-5.977zM15.513 19.647c-2.141 0-3.877-1.736-3.877-3.877s1.736-3.877 3.877-3.877c2.141 0 3.877 1.736 3.877 3.877s-1.736 3.877-3.877 3.877z"></path>
            <path d="M23.12 9.557c0 0.771-0.625 1.395-1.395 1.395s-1.395-0.625-1.395-1.395c0-0.771 0.625-1.395 1.395-1.395s1.395 0.625 1.395 1.395z"></path>
        </symbol>
        <symbol id="map-pin" viewBox="0 0 34 32">
            <path d="M16.8 24l1.6-3.2v-8.227c2.754-0.715 4.8-3.2 4.8-6.173 0-3.53-2.87-6.4-6.4-6.4s-6.4 2.87-6.4 6.4c0 2.973 2.046 5.458 4.8 6.173v8.227l1.6 3.2zM13.6 6.4c0-1.765 1.435-3.2 3.2-3.2s3.2 1.435 3.2 3.2c0 1.765-1.435 3.2-3.2 3.2s-3.2-1.435-3.2-3.2z"></path>
            <path d="M23.627 13.701l-0.853 3.085c4.146 1.146 6.826 3.349 6.826 5.614 0 3.027-5.256 6.4-12.8 6.4s-12.8-3.373-12.8-6.4c0-2.266 2.68-4.469 6.827-5.616l-0.853-3.085c-5.659 1.565-9.174 4.898-9.174 8.701 0 5.382 7.029 9.6 16 9.6s16-4.218 16-9.6c0-3.803-3.515-7.136-9.173-8.699z"></path>
        </symbol>
        <symbol id="map" viewBox="0 0 25 32">
            <path d="M12.572 19.349c3.362 0 6.095-2.734 6.095-6.095s-2.734-6.095-6.095-6.095c-3.361 0-6.095 2.734-6.095 6.095s2.734 6.095 6.095 6.095zM12.572 10.206c1.681 0 3.048 1.367 3.048 3.048s-1.367 3.048-3.048 3.048c-1.681 0-3.048-1.367-3.048-3.048s1.367-3.048 3.048-3.048z"></path>
            <path d="M11.688 31.256c0.258 0.184 0.567 0.283 0.884 0.283s0.626-0.099 0.884-0.283c0.463-0.328 11.351-8.189 11.307-18.002 0-6.721-5.469-12.19-12.19-12.19s-12.191 5.469-12.191 12.183c-0.044 9.821 10.843 17.682 11.307 18.010zM12.572 4.111c5.042 0 9.143 4.101 9.143 9.15 0.032 6.763-6.686 12.835-9.143 14.827-2.455-1.993-9.175-8.067-9.143-14.834 0-5.042 4.101-9.143 9.143-9.143z"></path>
        </symbol>
        <symbol id="burger" viewBox="0 0 43 32">
            <path d="M0 0h42.667v5.333h-42.667v-5.333zM0 13.333h42.667v5.333h-42.667v-5.333zM0 26.667h42.667v5.333h-42.667v-5.333z"></path>
        </symbol>
        <symbol id="phone" viewBox="0 0 31 32">
            <path d="M23.241 17.368c-0.147-0.147-0.321-0.263-0.512-0.343s-0.397-0.12-0.605-0.12c-0.208 0-0.413 0.041-0.605 0.12s-0.366 0.196-0.512 0.343l-2.519 2.519c-1.168-0.348-3.347-1.138-4.728-2.519s-2.171-3.56-2.519-4.728l2.519-2.519c0.147-0.147 0.263-0.321 0.343-0.512s0.121-0.397 0.121-0.605-0.041-0.413-0.121-0.605c-0.079-0.192-0.196-0.366-0.343-0.512l-6.321-6.321c-0.147-0.147-0.321-0.263-0.513-0.343s-0.397-0.12-0.605-0.12c-0.208 0-0.413 0.041-0.605 0.12s-0.366 0.196-0.513 0.343l-4.286 4.286c-0.601 0.601-0.939 1.425-0.926 2.268 0.036 2.25 0.632 10.066 6.792 16.226s13.976 6.754 16.228 6.792h0.044c0.834 0 1.623-0.329 2.22-0.926l4.286-4.286c0.147-0.147 0.263-0.321 0.343-0.513s0.12-0.397 0.12-0.605-0.041-0.413-0.12-0.605c-0.080-0.192-0.196-0.366-0.343-0.512l-6.321-6.323zM23.041 27.974c-1.972-0.033-8.72-0.563-14.022-5.866-5.319-5.319-5.834-12.091-5.866-14.023l3.168-3.168 4.087 4.087-2.043 2.043c-0.186 0.186-0.322 0.415-0.397 0.666s-0.086 0.518-0.032 0.775c0.038 0.182 0.966 4.491 3.589 7.114s6.933 3.551 7.114 3.589c0.257 0.055 0.523 0.045 0.775-0.030s0.481-0.212 0.666-0.398l2.045-2.043 4.087 4.087-3.17 3.168z"></path>
        </symbol>
        <symbol id="star" viewBox="0 0 34 32">
            <path d="M15.277 1.1c0.579-1.375 2.551-1.375 3.13 0l3.417 8.116c0.244 0.58 0.796 0.976 1.43 1.026l8.869 0.702c1.503 0.119 2.112 1.972 0.967 2.941l-6.757 5.718c-0.483 0.408-0.694 1.049-0.546 1.66l2.064 8.55c0.35 1.449-1.245 2.594-2.532 1.817l-7.593-4.582c-0.542-0.327-1.224-0.327-1.767 0l-7.593 4.582c-1.287 0.776-2.882-0.369-2.532-1.817l2.064-8.55c0.147-0.611-0.063-1.252-0.546-1.66l-6.757-5.718c-1.145-0.969-0.536-2.822 0.967-2.941l8.869-0.702c0.633-0.050 1.185-0.446 1.429-1.026l3.417-8.116z"></path>
        </symbol>
        <symbol id="close" viewBox="0 0 32 32">
            <path d="M27.179 0.918l-11.315 11.312-11.312-11.312-3.771 3.771 11.312 11.312-11.312 11.312 3.771 3.771 11.312-11.312 11.315 11.312 3.771-3.771-11.312-11.312 11.312-11.312-3.771-3.771z"></path>
        </symbol>
        <symbol id="icon-custom" viewBox="0 0 31 32">
            <path d="M22.207 5.741h3.569l-7.796 8.763 9.172 11.924h-7.181l-5.625-7.232-6.436 7.232h-3.571l8.339-9.373-8.799-11.314h7.364l5.084 6.61 5.881-6.61zM20.955 24.328h1.978l-12.764-16.596h-2.122l12.909 16.596z"></path>
        </symbol>
    </defs>
</svg>