<svg aria-hidden="true" style="position: absolute; width: 0; height: 0; overflow: hidden;"
    version="1.1" xmlns="http://www.w3.org/2000/svg" xmlns:xlink="http://www.w3.org/1999/xlink">
    <defs>
        <symbol id="icon-chevron-right" viewBox="0 0 31 32">
            <path d="M12.425 22.032l7.305-7.305-7.305-7.305-1.81 1.81 5.495 5.495-5.495 5.495 1.81 1.81z"></path>
        </symbol>
        <symbol id="icon-chevrons-right" viewBox="0 0 31 32">
            <path d="M13.179 10.063l5.536 5.491-5.536 5.491 1.802 1.818 7.369-7.309-7.369-7.309-1.802 1.818z"></path>
            <path d="M8.581 8.246l-1.802 1.818 5.536 5.491-5.536 5.491 1.802 1.818 7.369-7.309-7.369-7.309z"></path>
        </symbol>
        <symbol id="icon-email" viewBox="0 0 31 32">
            <path d="M25.859 5.427h-20.687c-1.426 0-2.586 1.16-2.586 2.586v15.515c0 1.426 1.16 2.586 2.586 2.586h20.687c1.426 0 2.586-1.16 2.586-2.586v-15.515c0-1.426-1.16-2.586-2.586-2.586zM25.859 8.013v0.661l-10.343 8.046-10.343-8.045v-0.662h20.687zM5.172 23.528v-11.579l9.55 7.428c0.226 0.178 0.506 0.275 0.794 0.275s0.567-0.097 0.794-0.275l9.55-7.428 0.003 11.579h-20.689z"></path>
        </symbol>
        <symbol id="facebook" viewBox="0 0 31 32">
            <path d="M28.444 16.164c0-7.184-5.789-13.008-12.929-13.008s-12.929 5.824-12.929 13.008c0 6.493 4.728 11.874 10.909 12.85v-9.090h-3.283v-3.76h3.283v-2.866c0-3.26 1.93-5.061 4.884-5.061 1.415 0 2.894 0.254 2.894 0.254v3.201h-1.63c-1.606 0-2.107 1.003-2.107 2.031v2.44h3.586l-0.573 3.76h-3.013v9.090c6.181-0.976 10.909-6.357 10.909-12.85z"></path>
        </symbol>
        <symbol id="instagram" viewBox="0 0 31 32">
            <path d="M15.514 6.23c3.109 0 3.477 0.014 4.699 0.068 1.137 0.050 1.75 0.241 2.159 0.4 0.541 0.209 0.931 0.464 1.336 0.868 0.409 0.409 0.659 0.796 0.873 1.337 0.159 0.409 0.35 1.027 0.4 2.159 0.055 1.227 0.068 1.595 0.068 4.7s-0.014 3.477-0.068 4.7c-0.050 1.137-0.241 1.75-0.4 2.159-0.209 0.541-0.463 0.931-0.868 1.336-0.409 0.409-0.796 0.659-1.336 0.873-0.409 0.159-1.027 0.35-2.159 0.4-1.228 0.055-1.595 0.068-4.7 0.068s-3.477-0.014-4.7-0.068c-1.137-0.050-1.75-0.241-2.159-0.4-0.541-0.209-0.931-0.463-1.337-0.868-0.409-0.409-0.659-0.796-0.873-1.336-0.159-0.409-0.35-1.027-0.4-2.159-0.055-1.228-0.068-1.595-0.068-4.7s0.014-3.477 0.068-4.7c0.050-1.137 0.241-1.75 0.4-2.159 0.209-0.541 0.464-0.932 0.868-1.337 0.409-0.409 0.796-0.659 1.337-0.873 0.409-0.159 1.027-0.35 2.159-0.4 1.222-0.055 1.591-0.068 4.7-0.068h0.001zM15.514 4.135c-3.159 0-3.554 0.014-4.795 0.068-1.236 0.055-2.086 0.255-2.822 0.541-0.768 0.3-1.418 0.695-2.063 1.345-0.65 0.646-1.046 1.295-1.345 2.059-0.287 0.741-0.487 1.586-0.541 2.822-0.055 1.246-0.068 1.641-0.068 4.799s0.014 3.554 0.068 4.795c0.055 1.236 0.255 2.086 0.541 2.822 0.3 0.768 0.695 1.418 1.345 2.063 0.645 0.645 1.295 1.046 2.059 1.341 0.741 0.287 1.586 0.486 2.822 0.541 1.241 0.055 1.636 0.068 4.795 0.068s3.554-0.014 4.795-0.068c1.236-0.055 2.086-0.254 2.822-0.541 0.764-0.295 1.414-0.695 2.059-1.341s1.046-1.295 1.341-2.059c0.286-0.741 0.486-1.586 0.541-2.822 0.055-1.241 0.068-1.636 0.068-4.795s-0.014-3.554-0.068-4.795c-0.055-1.236-0.255-2.086-0.541-2.822-0.287-0.773-0.682-1.422-1.331-2.068-0.645-0.645-1.295-1.046-2.059-1.341-0.741-0.287-1.586-0.487-2.822-0.541-1.245-0.059-1.641-0.073-4.799-0.073l-0.001 0.001z"></path>
            <path d="M15.513 9.794c-3.299 0-5.977 2.677-5.977 5.977s2.677 5.977 5.977 5.977c3.3 0 5.977-2.677 5.977-5.977s-2.677-5.977-5.977-5.977zM15.513 19.647c-2.141 0-3.877-1.736-3.877-3.877s1.736-3.877 3.877-3.877c2.141 0 3.877 1.736 3.877 3.877s-1.736 3.877-3.877 3.877z"></path>
            <path d="M23.12 9.557c0 0.771-0.625 1.395-1.395 1.395s-1.395-0.625-1.395-1.395c0-0.771 0.625-1.395 1.395-1.395s1.395 0.625 1.395 1.395z"></path>
        </symbol>
        <symbol id="map-pin" viewBox="0 0 34 32">
            <path d="M16.8 24l1.6-3.2v-8.227c2.754-0.715 4.8-3.2 4.8-6.173 0-3.53-2.87-6.4-6.4-6.4s-6.4 2.87-6.4 6.4c0 2.973 2.046 5.458 4.8 6.173v8.227l1.6 3.2zM13.6 6.4c0-1.765 1.435-3.2 3.2-3.2s3.2 1.435 3.2 3.2c0 1.765-1.435 3.2-3.2 3.2s-3.2-1.435-3.2-3.2z"></path>
            <path d="M23.627 13.701l-0.853 3.085c4.146 1.146 6.826 3.349 6.826 5.614 0 3.027-5.256 6.4-12.8 6.4s-12.8-3.373-12.8-6.4c0-2.266 2.68-4.469 6.827-5.616l-0.853-3.085c-5.659 1.565-9.174 4.898-9.174 8.701 0 5.382 7.029 9.6 16 9.6s16-4.218 16-9.6c0-3.803-3.515-7.136-9.173-8.699z"></path>
        </symbol>
        <symbol id="icon-map" viewBox="0 0 31 32">
            <path d="M15.515 18.357c2.852 0 5.172-2.32 5.172-5.172s-2.32-5.172-5.172-5.172c-2.852 0-5.172 2.319-5.172 5.172s2.319 5.172 5.172 5.172zM15.515 10.599c1.426 0 2.586 1.16 2.586 2.586s-1.16 2.586-2.586 2.586c-1.426 0-2.586-1.16-2.586-2.586s1.16-2.586 2.586-2.586z"></path>
            <path d="M14.765 28.46c0.219 0.156 0.481 0.24 0.75 0.24s0.531-0.084 0.75-0.24c0.393-0.278 9.631-6.948 9.593-15.275 0-5.703-4.64-10.343-10.343-10.343s-10.343 4.64-10.343 10.337c-0.037 8.333 9.2 15.003 9.594 15.281zM15.515 5.428c4.278 0 7.758 3.479 7.758 7.764 0.027 5.738-5.673 10.89-7.758 12.58-2.083-1.691-7.785-6.845-7.758-12.587 0-4.278 3.479-7.758 7.758-7.758z"></path>
        </symbol>
        <symbol id="icon-burger" viewBox="0 0 32 32">
            <path d="M5.333 8h21.333v2.667h-21.333v-2.667zM5.333 14.667h21.333v2.667h-21.333v-2.667zM5.333 21.333h21.333v2.667h-21.333v-2.667z"></path>
        </symbol>
        <symbol id="icon-phone" viewBox="0 0 31 32">
            <path d="M22.894 16.149c-0.12-0.12-0.262-0.216-0.419-0.281s-0.325-0.099-0.495-0.099c-0.17 0-0.338 0.033-0.495 0.099s-0.299 0.16-0.419 0.281l-2.061 2.061c-0.956-0.284-2.738-0.931-3.869-2.061s-1.777-2.913-2.061-3.869l2.061-2.061c0.12-0.12 0.216-0.262 0.281-0.419s0.099-0.325 0.099-0.495-0.034-0.338-0.099-0.495c-0.065-0.157-0.16-0.299-0.281-0.419l-5.172-5.172c-0.12-0.12-0.262-0.216-0.419-0.281s-0.325-0.099-0.495-0.099-0.338 0.033-0.495 0.099c-0.157 0.065-0.299 0.16-0.419 0.281l-3.506 3.506c-0.491 0.491-0.768 1.166-0.758 1.855 0.030 1.841 0.517 8.236 5.557 13.276s11.435 5.526 13.277 5.557h0.036c0.683 0 1.328-0.269 1.817-0.758l3.506-3.506c0.12-0.12 0.215-0.262 0.281-0.419s0.099-0.325 0.099-0.495-0.033-0.338-0.099-0.495c-0.065-0.157-0.16-0.299-0.281-0.419l-5.172-5.173zM22.73 24.827c-1.614-0.027-7.134-0.46-11.472-4.799-4.352-4.352-4.773-9.892-4.799-11.473l2.592-2.592 3.344 3.344-1.672 1.672c-0.152 0.152-0.264 0.339-0.325 0.545s-0.071 0.424-0.027 0.634c0.031 0.149 0.79 3.675 2.936 5.821s5.672 2.905 5.821 2.936c0.21 0.045 0.428 0.037 0.634-0.024s0.393-0.173 0.545-0.326l1.673-1.672 3.343 3.343-2.594 2.592z"></path>
        </symbol>
        <symbol id="star" viewBox="0 0 34 32">
            <path d="M15.277 1.1c0.579-1.375 2.551-1.375 3.13 0l3.417 8.116c0.244 0.58 0.796 0.976 1.43 1.026l8.869 0.702c1.503 0.119 2.112 1.972 0.967 2.941l-6.757 5.718c-0.483 0.408-0.694 1.049-0.546 1.66l2.064 8.55c0.35 1.449-1.245 2.594-2.532 1.817l-7.593-4.582c-0.542-0.327-1.224-0.327-1.767 0l-7.593 4.582c-1.287 0.776-2.882-0.369-2.532-1.817l2.064-8.55c0.147-0.611-0.063-1.252-0.546-1.66l-6.757-5.718c-1.145-0.969-0.536-2.822 0.967-2.941l8.869-0.702c0.633-0.050 1.185-0.446 1.429-1.026l3.417-8.116z"></path>
        </symbol>
        <symbol id="close" viewBox="0 0 32 32">
            <path d="M27.179 0.918l-11.315 11.312-11.312-11.312-3.771 3.771 11.312 11.312-11.312 11.312 3.771 3.771 11.312-11.312 11.315 11.312 3.771-3.771-11.312-11.312 11.312-11.312-3.771-3.771z"></path>
        </symbol>
        <symbol id="icon-custom" viewBox="0 0 31 32">
            <path d="M22.207 5.741h3.569l-7.796 8.763 9.172 11.924h-7.181l-5.625-7.232-6.436 7.232h-3.571l8.339-9.373-8.799-11.314h7.364l5.084 6.61 5.881-6.61zM20.955 24.328h1.978l-12.764-16.596h-2.122l12.909 16.596z"></path>
        </symbol>
    </defs>
</svg>